STARTFONT 2.1
FONT -FontForge-Satisfy-Book-R-Normal--12-120-72-72-P-52-ISO10646-1
SIZE 12 72 72
FONTBOUNDINGBOX 14 17 -3 -6
COMMENT "Generated by fontforge, http://fontforge.sourceforge.net"
COMMENT "Copyright (c) 2011 by Font Diner, Inc. All rights reserved."
STARTPROPERTIES 39
FOUNDRY "FontForge"
FAMILY_NAME "Satisfy"
WEIGHT_NAME "Book"
SLANT "R"
SETWIDTH_NAME "Normal"
ADD_STYLE_NAME ""
PIXEL_SIZE 12
POINT_SIZE 120
RESOLUTION_X 72
RESOLUTION_Y 72
SPACING "P"
AVERAGE_WIDTH 52
CHARSET_REGISTRY "ISO10646"
CHARSET_ENCODING "1"
FONTNAME_REGISTRY ""
CHARSET_COLLECTIONS "ISO10646-1"
FONT_NAME "Satisfy-Regular"
FACE_NAME "Satisfy Regular"
COPYRIGHT "Copyright (c) 2011 by Font Diner, Inc. All rights reserved."
FONT_VERSION "1.001"
FONT_ASCENT 10
FONT_DESCENT 2
UNDERLINE_POSITION -1
UNDERLINE_THICKNESS 1
X_HEIGHT 4
CAP_HEIGHT 8
RAW_ASCENT 799
RAW_DESCENT 200
NORM_SPACE 3
RELATIVE_WEIGHT 40
RELATIVE_SETWIDTH 50
SUPERSCRIPT_X 0
SUPERSCRIPT_Y 5
SUPERSCRIPT_SIZE 7
SUBSCRIPT_X 0
SUBSCRIPT_Y 1
SUBSCRIPT_SIZE 7
AVG_LOWERCASE_WIDTH 49
AVG_UPPERCASE_WIDTH 68
ENDPROPERTIES
CHARS 227
STARTCHAR space
ENCODING 32
SWIDTH 280 0
DWIDTH 3 0
BBX 1 1 0 0
BITMAP
00
ENDCHAR
STARTCHAR exclam
ENCODING 33
SWIDTH 249 0
DWIDTH 3 0
BBX 3 9 0 0
BITMAP
20
20
60
40
40
40
40
80
80
ENDCHAR
STARTCHAR quotedbl
ENCODING 34
SWIDTH 249 0
DWIDTH 3 0
BBX 4 4 0 5
BITMAP
50
50
60
A0
ENDCHAR
STARTCHAR numbersign
ENCODING 35
SWIDTH 417 0
DWIDTH 5 0
BBX 5 7 0 1
BITMAP
28
28
F8
50
F8
60
A0
ENDCHAR
STARTCHAR dollar
ENCODING 36
SWIDTH 292 0
DWIDTH 4 0
BBX 4 9 0 0
BITMAP
20
30
50
50
40
40
A0
E0
80
ENDCHAR
STARTCHAR percent
ENCODING 37
SWIDTH 574 0
DWIDTH 7 0
BBX 7 9 0 0
BITMAP
22
54
98
A8
50
2C
32
54
9C
ENDCHAR
STARTCHAR ampersand
ENCODING 38
SWIDTH 460 0
DWIDTH 6 0
BBX 6 10 -1 -1
BITMAP
0C
14
18
10
30
50
50
94
78
08
ENDCHAR
STARTCHAR quotesingle
ENCODING 39
SWIDTH 113 0
DWIDTH 1 0
BBX 2 4 0 5
BITMAP
40
40
40
80
ENDCHAR
STARTCHAR parenleft
ENCODING 40
SWIDTH 234 0
DWIDTH 3 0
BBX 4 11 0 -1
BITMAP
10
20
20
40
40
40
80
80
80
80
80
ENDCHAR
STARTCHAR parenright
ENCODING 41
SWIDTH 204 0
DWIDTH 2 0
BBX 3 11 -1 -1
BITMAP
20
20
20
20
20
20
20
20
40
40
80
ENDCHAR
STARTCHAR asterisk
ENCODING 42
SWIDTH 327 0
DWIDTH 4 0
BBX 4 4 1 5
BITMAP
60
D0
60
A0
ENDCHAR
STARTCHAR plus
ENCODING 43
SWIDTH 350 0
DWIDTH 4 0
BBX 4 4 0 2
BITMAP
20
F0
40
40
ENDCHAR
STARTCHAR comma
ENCODING 44
SWIDTH 200 0
DWIDTH 2 0
BBX 1 2 0 -1
BITMAP
80
80
ENDCHAR
STARTCHAR hyphen
ENCODING 45
SWIDTH 353 0
DWIDTH 4 0
BBX 4 1 0 3
BITMAP
F0
ENDCHAR
STARTCHAR period
ENCODING 46
SWIDTH 213 0
DWIDTH 3 0
BBX 1 1 0 0
BITMAP
80
ENDCHAR
STARTCHAR slash
ENCODING 47
SWIDTH 262 0
DWIDTH 3 0
BBX 6 9 -1 0
BITMAP
04
08
10
10
20
20
40
40
80
ENDCHAR
STARTCHAR zero
ENCODING 48
SWIDTH 489 0
DWIDTH 6 0
BBX 5 9 0 0
BITMAP
18
28
48
48
48
88
88
90
70
ENDCHAR
STARTCHAR one
ENCODING 49
SWIDTH 272 0
DWIDTH 3 0
BBX 3 9 0 0
BITMAP
20
60
20
40
40
40
40
80
80
ENDCHAR
STARTCHAR two
ENCODING 50
SWIDTH 448 0
DWIDTH 5 0
BBX 5 9 0 0
BITMAP
38
48
48
08
10
20
40
80
F0
ENDCHAR
STARTCHAR three
ENCODING 51
SWIDTH 462 0
DWIDTH 6 0
BBX 5 9 0 0
BITMAP
38
48
48
08
30
50
08
90
F0
ENDCHAR
STARTCHAR four
ENCODING 52
SWIDTH 452 0
DWIDTH 5 0
BBX 5 9 0 0
BITMAP
08
18
28
50
90
F8
10
10
30
ENDCHAR
STARTCHAR five
ENCODING 53
SWIDTH 444 0
DWIDTH 5 0
BBX 6 9 0 0
BITMAP
3C
28
40
40
70
08
10
90
E0
ENDCHAR
STARTCHAR six
ENCODING 54
SWIDTH 477 0
DWIDTH 6 0
BBX 5 9 0 0
BITMAP
18
28
48
50
68
C8
88
50
70
ENDCHAR
STARTCHAR seven
ENCODING 55
SWIDTH 406 0
DWIDTH 5 0
BBX 4 9 1 0
BITMAP
F0
90
10
20
40
40
80
80
80
ENDCHAR
STARTCHAR eight
ENCODING 56
SWIDTH 444 0
DWIDTH 5 0
BBX 5 9 0 0
BITMAP
18
28
48
30
20
50
90
90
F0
ENDCHAR
STARTCHAR nine
ENCODING 57
SWIDTH 462 0
DWIDTH 6 0
BBX 5 9 0 0
BITMAP
18
28
48
48
58
78
10
90
E0
ENDCHAR
STARTCHAR colon
ENCODING 58
SWIDTH 226 0
DWIDTH 3 0
BBX 2 3 0 0
BITMAP
C0
00
80
ENDCHAR
STARTCHAR semicolon
ENCODING 59
SWIDTH 212 0
DWIDTH 3 0
BBX 2 4 0 -1
BITMAP
C0
00
80
80
ENDCHAR
STARTCHAR less
ENCODING 60
SWIDTH 271 0
DWIDTH 3 0
BBX 4 5 0 1
BITMAP
30
40
80
40
40
ENDCHAR
STARTCHAR equal
ENCODING 61
SWIDTH 374 0
DWIDTH 4 0
BBX 4 2 0 3
BITMAP
F0
F0
ENDCHAR
STARTCHAR greater
ENCODING 62
SWIDTH 250 0
DWIDTH 3 0
BBX 4 5 -1 1
BITMAP
20
30
30
60
80
ENDCHAR
STARTCHAR question
ENCODING 63
SWIDTH 413 0
DWIDTH 5 0
BBX 6 9 0 0
BITMAP
38
44
48
08
30
40
40
80
C0
ENDCHAR
STARTCHAR at
ENCODING 64
SWIDTH 648 0
DWIDTH 8 0
BBX 8 8 0 0
BITMAP
1C
62
9D
AD
C9
CA
BA
6C
ENDCHAR
STARTCHAR A
ENCODING 65
SWIDTH 552 0
DWIDTH 7 0
BBX 7 12 -1 -3
BITMAP
06
0A
12
12
24
24
3E
E4
44
44
C4
04
ENDCHAR
STARTCHAR B
ENCODING 66
SWIDTH 607 0
DWIDTH 7 0
BBX 7 11 0 -2
BITMAP
1C
62
22
26
24
78
44
44
C4
8C
F8
ENDCHAR
STARTCHAR C
ENCODING 67
SWIDTH 548 0
DWIDTH 7 0
BBX 7 11 0 -2
BITMAP
1C
32
26
44
40
C0
80
80
84
C8
70
ENDCHAR
STARTCHAR D
ENCODING 68
SWIDTH 632 0
DWIDTH 8 0
BBX 7 11 0 -2
BITMAP
38
44
22
22
22
62
42
44
44
88
F0
ENDCHAR
STARTCHAR E
ENCODING 69
SWIDTH 523 0
DWIDTH 6 0
BBX 6 11 0 -2
BITMAP
1C
24
44
4C
40
30
40
80
84
88
F0
ENDCHAR
STARTCHAR F
ENCODING 70
SWIDTH 585 0
DWIDTH 7 0
BBX 7 11 0 -2
BITMAP
3C
42
E2
04
04
7E
08
10
10
30
30
ENDCHAR
STARTCHAR G
ENCODING 71
SWIDTH 612 0
DWIDTH 7 0
BBX 7 11 0 -2
BITMAP
0C
12
22
64
40
40
DE
84
84
C8
70
ENDCHAR
STARTCHAR H
ENCODING 72
SWIDTH 649 0
DWIDTH 8 0
BBX 8 11 0 -2
BITMAP
11
23
22
22
42
7E
D4
4C
CC
88
88
ENDCHAR
STARTCHAR I
ENCODING 73
SWIDTH 537 0
DWIDTH 6 0
BBX 7 11 -1 -2
BITMAP
06
0A
0A
12
14
0C
1C
64
88
88
70
ENDCHAR
STARTCHAR J
ENCODING 74
SWIDTH 500 0
DWIDTH 6 0
BBX 8 11 -1 -2
BITMAP
0F
02
04
04
04
04
68
48
88
90
F0
ENDCHAR
STARTCHAR K
ENCODING 75
SWIDTH 497 0
DWIDTH 6 0
BBX 7 12 -1 -3
BITMAP
12
12
32
24
2C
30
78
4C
48
48
C8
0E
ENDCHAR
STARTCHAR L
ENCODING 76
SWIDTH 492 0
DWIDTH 6 0
BBX 7 11 -1 -2
BITMAP
06
06
0A
0C
78
08
10
10
10
E0
DC
ENDCHAR
STARTCHAR M
ENCODING 77
SWIDTH 733 0
DWIDTH 9 0
BBX 10 11 -1 -2
BITMAP
08C0
08C0
1980
1980
1A80
3A80
AC80
AD00
AD00
E900
C180
ENDCHAR
STARTCHAR N
ENCODING 78
SWIDTH 541 0
DWIDTH 7 0
BBX 8 11 0 -2
BITMAP
22
65
66
6E
68
A8
A8
A8
A8
90
90
ENDCHAR
STARTCHAR O
ENCODING 79
SWIDTH 567 0
DWIDTH 7 0
BBX 6 11 0 -2
BITMAP
18
34
64
44
44
84
84
84
88
88
70
ENDCHAR
STARTCHAR P
ENCODING 80
SWIDTH 552 0
DWIDTH 7 0
BBX 8 11 -1 -2
BITMAP
1E
33
31
11
22
24
38
20
60
40
C0
ENDCHAR
STARTCHAR Q
ENCODING 81
SWIDTH 583 0
DWIDTH 7 0
BBX 7 11 0 -2
BITMAP
1C
24
62
42
44
C4
84
6C
08
70
EE
ENDCHAR
STARTCHAR R
ENCODING 82
SWIDTH 560 0
DWIDTH 7 0
BBX 7 12 0 -3
BITMAP
3C
62
22
22
24
4C
70
50
50
88
88
0C
ENDCHAR
STARTCHAR S
ENCODING 83
SWIDTH 474 0
DWIDTH 6 0
BBX 7 11 -1 -2
BITMAP
1C
32
22
24
30
18
08
08
48
C8
70
ENDCHAR
STARTCHAR T
ENCODING 84
SWIDTH 423 0
DWIDTH 5 0
BBX 6 11 0 -2
BITMAP
7C
90
10
20
20
20
20
60
40
40
40
ENDCHAR
STARTCHAR U
ENCODING 85
SWIDTH 574 0
DWIDTH 7 0
BBX 7 11 0 -2
BITMAP
12
22
66
44
44
44
CC
88
88
98
E8
ENDCHAR
STARTCHAR V
ENCODING 86
SWIDTH 503 0
DWIDTH 6 0
BBX 6 11 1 -2
BITMAP
44
88
88
98
90
90
B0
A0
A0
C0
C0
ENDCHAR
STARTCHAR W
ENCODING 87
SWIDTH 817 0
DWIDTH 10 0
BBX 10 11 0 -2
BITMAP
30C0
24C0
44C0
4C80
4880
4880
8880
8900
9900
9A00
6600
ENDCHAR
STARTCHAR X
ENCODING 88
SWIDTH 579 0
DWIDTH 7 0
BBX 9 11 -1 -2
BITMAP
3080
5100
4A00
3E00
0C00
0800
1800
1800
2800
6900
C600
ENDCHAR
STARTCHAR Y
ENCODING 89
SWIDTH 532 0
DWIDTH 6 0
BBX 7 11 0 -2
BITMAP
22
66
44
44
44
C8
88
78
08
90
E0
ENDCHAR
STARTCHAR Z
ENCODING 90
SWIDTH 455 0
DWIDTH 5 0
BBX 7 11 -1 -2
BITMAP
3E
22
06
04
08
10
30
20
40
84
F8
ENDCHAR
STARTCHAR bracketleft
ENCODING 91
SWIDTH 202 0
DWIDTH 2 0
BBX 5 11 -1 -1
BITMAP
18
10
20
20
20
40
40
40
40
40
C0
ENDCHAR
STARTCHAR backslash
ENCODING 92
SWIDTH 273 0
DWIDTH 3 0
BBX 3 9 0 0
BITMAP
80
40
40
40
40
40
40
40
20
ENDCHAR
STARTCHAR bracketright
ENCODING 93
SWIDTH 216 0
DWIDTH 3 0
BBX 4 11 -1 -1
BITMAP
30
10
10
20
20
20
20
20
40
40
C0
ENDCHAR
STARTCHAR asciicircum
ENCODING 94
SWIDTH 287 0
DWIDTH 3 0
BBX 4 5 0 4
BITMAP
20
50
50
90
90
ENDCHAR
STARTCHAR underscore
ENCODING 95
SWIDTH 439 0
DWIDTH 5 0
BBX 6 1 -1 0
BITMAP
FC
ENDCHAR
STARTCHAR grave
ENCODING 96
SWIDTH 567 0
DWIDTH 7 0
BBX 2 1 3 7
BITMAP
C0
ENDCHAR
STARTCHAR a
ENCODING 97
SWIDTH 435 0
DWIDTH 5 0
BBX 6 5 0 0
BITMAP
20
50
94
A4
D8
ENDCHAR
STARTCHAR b
ENCODING 98
SWIDTH 415 0
DWIDTH 5 0
BBX 6 8 0 0
BITMAP
20
60
40
40
FC
90
A0
E0
ENDCHAR
STARTCHAR c
ENCODING 99
SWIDTH 363 0
DWIDTH 4 0
BBX 5 5 0 0
BITMAP
60
A0
88
88
F0
ENDCHAR
STARTCHAR d
ENCODING 100
SWIDTH 483 0
DWIDTH 6 0
BBX 7 8 0 0
BITMAP
0C
0C
08
68
90
92
B4
D8
ENDCHAR
STARTCHAR e
ENCODING 101
SWIDTH 372 0
DWIDTH 4 0
BBX 5 5 0 0
BITMAP
20
60
C8
88
F0
ENDCHAR
STARTCHAR f
ENCODING 102
SWIDTH 325 0
DWIDTH 4 0
BBX 6 14 -1 -6
BITMAP
10
10
20
20
2C
70
40
60
50
90
90
A0
E0
80
ENDCHAR
STARTCHAR g
ENCODING 103
SWIDTH 459 0
DWIDTH 6 0
BBX 6 11 0 -6
BITMAP
68
90
94
94
F8
20
60
A0
A0
C0
C0
ENDCHAR
STARTCHAR h
ENCODING 104
SWIDTH 465 0
DWIDTH 6 0
BBX 6 8 0 0
BITMAP
60
40
40
70
50
94
94
98
ENDCHAR
STARTCHAR i
ENCODING 105
SWIDTH 274 0
DWIDTH 3 0
BBX 4 8 0 0
BITMAP
20
40
00
40
40
90
90
E0
ENDCHAR
STARTCHAR j
ENCODING 106
SWIDTH 267 0
DWIDTH 3 0
BBX 7 13 -3 -5
BITMAP
04
08
00
08
08
12
14
18
10
30
60
A0
E0
ENDCHAR
STARTCHAR k
ENCODING 107
SWIDTH 440 0
DWIDTH 5 0
BBX 6 8 0 0
BITMAP
60
40
40
70
50
E4
A4
B8
ENDCHAR
STARTCHAR l
ENCODING 108
SWIDTH 218 0
DWIDTH 3 0
BBX 3 8 0 0
BITMAP
60
40
40
40
40
80
80
80
ENDCHAR
STARTCHAR m
ENCODING 109
SWIDTH 717 0
DWIDTH 9 0
BBX 10 5 0 0
BITMAP
1200
7E00
D240
9280
9700
ENDCHAR
STARTCHAR n
ENCODING 110
SWIDTH 461 0
DWIDTH 6 0
BBX 6 5 0 0
BITMAP
50
70
94
94
98
ENDCHAR
STARTCHAR o
ENCODING 111
SWIDTH 393 0
DWIDTH 5 0
BBX 6 5 0 0
BITMAP
60
94
D8
A0
E0
ENDCHAR
STARTCHAR p
ENCODING 112
SWIDTH 451 0
DWIDTH 5 0
BBX 7 10 -1 -5
BITMAP
28
38
4A
4A
7C
40
80
80
80
80
ENDCHAR
STARTCHAR q
ENCODING 113
SWIDTH 462 0
DWIDTH 6 0
BBX 6 10 0 -5
BITMAP
28
50
90
94
B8
68
30
20
60
20
ENDCHAR
STARTCHAR r
ENCODING 114
SWIDTH 406 0
DWIDTH 5 0
BBX 7 6 -1 0
BITMAP
20
20
38
52
54
98
ENDCHAR
STARTCHAR s
ENCODING 115
SWIDTH 351 0
DWIDTH 4 0
BBX 3 5 0 0
BITMAP
60
40
A0
20
E0
ENDCHAR
STARTCHAR t
ENCODING 116
SWIDTH 301 0
DWIDTH 4 0
BBX 6 8 -1 0
BITMAP
10
FC
20
20
20
44
48
70
ENDCHAR
STARTCHAR u
ENCODING 117
SWIDTH 468 0
DWIDTH 6 0
BBX 7 5 0 0
BITMAP
50
90
92
94
F8
ENDCHAR
STARTCHAR v
ENCODING 118
SWIDTH 427 0
DWIDTH 5 0
BBX 6 5 0 0
BITMAP
48
90
9C
A0
C0
ENDCHAR
STARTCHAR w
ENCODING 119
SWIDTH 646 0
DWIDTH 8 0
BBX 9 5 0 0
BITMAP
5200
9680
9700
A400
F800
ENDCHAR
STARTCHAR x
ENCODING 120
SWIDTH 399 0
DWIDTH 5 0
BBX 6 5 -1 0
BITMAP
48
38
30
24
D8
ENDCHAR
STARTCHAR y
ENCODING 121
SWIDTH 406 0
DWIDTH 5 0
BBX 4 10 0 -5
BITMAP
50
90
90
B0
E0
20
20
20
60
40
ENDCHAR
STARTCHAR z
ENCODING 122
SWIDTH 448 0
DWIDTH 5 0
BBX 6 10 0 -5
BITMAP
38
50
10
24
58
30
50
A0
A0
C0
ENDCHAR
STARTCHAR braceleft
ENCODING 123
SWIDTH 243 0
DWIDTH 3 0
BBX 4 11 0 -1
BITMAP
30
20
40
40
40
80
40
40
80
80
C0
ENDCHAR
STARTCHAR bar
ENCODING 124
SWIDTH 253 0
DWIDTH 3 0
BBX 3 9 0 0
BITMAP
20
20
40
40
40
40
40
80
80
ENDCHAR
STARTCHAR braceright
ENCODING 125
SWIDTH 243 0
DWIDTH 3 0
BBX 4 11 -1 -1
BITMAP
20
10
10
20
20
20
20
40
40
40
C0
ENDCHAR
STARTCHAR asciitilde
ENCODING 126
SWIDTH 329 0
DWIDTH 4 0
BBX 4 1 0 4
BITMAP
F0
ENDCHAR
STARTCHAR uni00A0
ENCODING 160
SWIDTH 280 0
DWIDTH 3 0
BBX 1 1 0 0
BITMAP
00
ENDCHAR
STARTCHAR exclamdown
ENCODING 161
SWIDTH 249 0
DWIDTH 3 0
BBX 3 9 0 0
BITMAP
20
00
20
40
40
40
C0
80
80
ENDCHAR
STARTCHAR cent
ENCODING 162
SWIDTH 322 0
DWIDTH 4 0
BBX 4 9 0 0
BITMAP
10
20
50
90
80
80
90
E0
40
ENDCHAR
STARTCHAR sterling
ENCODING 163
SWIDTH 318 0
DWIDTH 4 0
BBX 5 7 -1 1
BITMAP
18
38
20
30
40
40
F0
ENDCHAR
STARTCHAR currency
ENCODING 164
SWIDTH 347 0
DWIDTH 4 0
BBX 4 4 0 2
BITMAP
70
50
60
90
ENDCHAR
STARTCHAR yen
ENCODING 165
SWIDTH 326 0
DWIDTH 4 0
BBX 5 7 0 1
BITMAP
48
50
60
20
E0
E0
40
ENDCHAR
STARTCHAR brokenbar
ENCODING 166
SWIDTH 253 0
DWIDTH 3 0
BBX 3 9 0 0
BITMAP
20
20
40
40
00
40
40
80
80
ENDCHAR
STARTCHAR section
ENCODING 167
SWIDTH 297 0
DWIDTH 4 0
BBX 4 9 0 0
BITMAP
30
50
40
60
A0
A0
40
A0
E0
ENDCHAR
STARTCHAR dieresis
ENCODING 168
SWIDTH 567 0
DWIDTH 7 0
BBX 3 1 3 7
BITMAP
E0
ENDCHAR
STARTCHAR copyright
ENCODING 169
SWIDTH 456 0
DWIDTH 5 0
BBX 6 6 0 3
BITMAP
38
54
B4
A4
B4
78
ENDCHAR
STARTCHAR ordfeminine
ENCODING 170
SWIDTH 373 0
DWIDTH 4 0
BBX 6 6 -1 0
BITMAP
10
30
50
54
78
F0
ENDCHAR
STARTCHAR guillemotleft
ENCODING 171
SWIDTH 346 0
DWIDTH 4 0
BBX 4 5 0 0
BITMAP
50
60
C0
A0
E0
ENDCHAR
STARTCHAR logicalnot
ENCODING 172
SWIDTH 512 0
DWIDTH 6 0
BBX 6 3 0 2
BITMAP
FC
04
0C
ENDCHAR
STARTCHAR sfthyphen
ENCODING 173
SWIDTH 353 0
DWIDTH 4 0
BBX 4 1 0 3
BITMAP
F0
ENDCHAR
STARTCHAR registered
ENCODING 174
SWIDTH 456 0
DWIDTH 5 0
BBX 6 6 0 3
BITMAP
38
54
AC
B4
B4
78
ENDCHAR
STARTCHAR macron
ENCODING 175
SWIDTH 567 0
DWIDTH 7 0
BBX 3 1 3 7
BITMAP
E0
ENDCHAR
STARTCHAR degree
ENCODING 176
SWIDTH 144 0
DWIDTH 2 0
BBX 1 1 1 7
BITMAP
80
ENDCHAR
STARTCHAR twosuperior
ENCODING 178
SWIDTH 268 0
DWIDTH 3 0
BBX 4 6 0 3
BITMAP
30
50
20
40
80
E0
ENDCHAR
STARTCHAR threesuperior
ENCODING 179
SWIDTH 262 0
DWIDTH 3 0
BBX 4 6 0 3
BITMAP
60
50
20
60
A0
40
ENDCHAR
STARTCHAR acute
ENCODING 180
SWIDTH 567 0
DWIDTH 7 0
BBX 2 1 3 7
BITMAP
C0
ENDCHAR
STARTCHAR mu
ENCODING 181
SWIDTH 453 0
DWIDTH 5 0
BBX 7 6 -2 -2
BITMAP
24
28
2A
76
40
C0
ENDCHAR
STARTCHAR paragraph
ENCODING 182
SWIDTH 411 0
DWIDTH 5 0
BBX 6 9 0 0
BITMAP
14
78
F8
E8
68
30
30
30
50
ENDCHAR
STARTCHAR periodcentered
ENCODING 183
SWIDTH 168 0
DWIDTH 2 0
BBX 2 2 0 3
BITMAP
40
80
ENDCHAR
STARTCHAR cedilla
ENCODING 184
SWIDTH 567 0
DWIDTH 7 0
BBX 2 3 3 -2
BITMAP
80
40
80
ENDCHAR
STARTCHAR onesuperior
ENCODING 185
SWIDTH 150 0
DWIDTH 2 0
BBX 2 6 0 3
BITMAP
40
40
40
40
80
80
ENDCHAR
STARTCHAR ordmasculine
ENCODING 186
SWIDTH 319 0
DWIDTH 4 0
BBX 6 6 -1 0
BITMAP
20
54
78
50
60
F0
ENDCHAR
STARTCHAR guillemotright
ENCODING 187
SWIDTH 346 0
DWIDTH 4 0
BBX 5 5 -1 0
BITMAP
60
50
28
50
A0
ENDCHAR
STARTCHAR onequarter
ENCODING 188
SWIDTH 579 0
DWIDTH 7 0
BBX 7 9 0 0
BITMAP
46
44
48
50
94
AC
5C
44
84
ENDCHAR
STARTCHAR onehalf
ENCODING 189
SWIDTH 603 0
DWIDTH 7 0
BBX 7 9 0 0
BITMAP
42
44
48
54
5A
A2
44
48
9C
ENDCHAR
STARTCHAR threequarters
ENCODING 190
SWIDTH 669 0
DWIDTH 8 0
BBX 8 9 0 0
BITMAP
61
52
24
69
AA
56
2E
22
42
ENDCHAR
STARTCHAR questiondown
ENCODING 191
SWIDTH 413 0
DWIDTH 5 0
BBX 6 9 -1 0
BITMAP
0C
04
08
08
18
60
40
88
78
ENDCHAR
STARTCHAR Agrave
ENCODING 192
SWIDTH 552 0
DWIDTH 7 0
BBX 7 14 -1 -3
BITMAP
06
00
06
0A
12
12
24
24
3E
E4
44
44
C4
04
ENDCHAR
STARTCHAR Aacute
ENCODING 193
SWIDTH 552 0
DWIDTH 7 0
BBX 7 14 -1 -3
BITMAP
02
04
06
0A
12
12
24
24
3E
E4
44
44
C4
04
ENDCHAR
STARTCHAR Acircumflex
ENCODING 194
SWIDTH 552 0
DWIDTH 7 0
BBX 8 14 -1 -3
BITMAP
06
09
06
0A
12
12
24
24
3E
E4
44
44
C4
04
ENDCHAR
STARTCHAR Atilde
ENCODING 195
SWIDTH 552 0
DWIDTH 7 0
BBX 8 14 -1 -3
BITMAP
0F
00
06
0A
12
12
24
24
3E
E4
44
44
C4
04
ENDCHAR
STARTCHAR Adieresis
ENCODING 196
SWIDTH 552 0
DWIDTH 7 0
BBX 8 14 -1 -3
BITMAP
05
00
06
0A
12
12
24
24
3E
E4
44
44
C4
04
ENDCHAR
STARTCHAR Aring
ENCODING 197
SWIDTH 552 0
DWIDTH 7 0
BBX 7 13 -1 -3
BITMAP
06
06
0A
12
12
24
24
3E
E4
44
44
C4
04
ENDCHAR
STARTCHAR AE
ENCODING 198
SWIDTH 869 0
DWIDTH 10 0
BBX 12 12 -1 -3
BITMAP
06E0
0B10
1320
1260
2300
2580
3E00
E400
4420
4440
C780
0400
ENDCHAR
STARTCHAR Ccedilla
ENCODING 199
SWIDTH 548 0
DWIDTH 7 0
BBX 7 14 0 -5
BITMAP
1C
32
26
44
40
C0
80
80
84
C8
70
20
10
60
ENDCHAR
STARTCHAR Egrave
ENCODING 200
SWIDTH 523 0
DWIDTH 6 0
BBX 6 13 0 -2
BITMAP
08
04
1C
24
44
4C
40
30
40
80
84
88
F0
ENDCHAR
STARTCHAR Eacute
ENCODING 201
SWIDTH 523 0
DWIDTH 6 0
BBX 6 13 0 -2
BITMAP
0C
00
1C
24
44
4C
40
30
40
80
84
88
F0
ENDCHAR
STARTCHAR Ecircumflex
ENCODING 202
SWIDTH 523 0
DWIDTH 6 0
BBX 7 13 0 -2
BITMAP
0C
12
1C
24
44
4C
40
30
40
80
84
88
F0
ENDCHAR
STARTCHAR Edieresis
ENCODING 203
SWIDTH 523 0
DWIDTH 6 0
BBX 7 13 0 -2
BITMAP
1E
00
1C
24
44
4C
40
30
40
80
84
88
F0
ENDCHAR
STARTCHAR Igrave
ENCODING 204
SWIDTH 537 0
DWIDTH 6 0
BBX 7 13 -1 -2
BITMAP
06
00
06
0A
0A
12
14
0C
1C
64
88
88
70
ENDCHAR
STARTCHAR Iacute
ENCODING 205
SWIDTH 537 0
DWIDTH 6 0
BBX 7 13 -1 -2
BITMAP
02
04
06
0A
0A
12
14
0C
1C
64
88
88
70
ENDCHAR
STARTCHAR Icircumflex
ENCODING 206
SWIDTH 537 0
DWIDTH 6 0
BBX 8 13 -1 -2
BITMAP
07
00
06
0A
0A
12
14
0C
1C
64
88
88
70
ENDCHAR
STARTCHAR Idieresis
ENCODING 207
SWIDTH 537 0
DWIDTH 6 0
BBX 8 13 -1 -2
BITMAP
05
00
06
0A
0A
12
14
0C
1C
64
88
88
70
ENDCHAR
STARTCHAR Eth
ENCODING 208
SWIDTH 632 0
DWIDTH 8 0
BBX 7 11 0 -2
BITMAP
38
44
22
22
22
F2
42
44
44
88
F0
ENDCHAR
STARTCHAR Ntilde
ENCODING 209
SWIDTH 541 0
DWIDTH 7 0
BBX 8 12 0 -2
BITMAP
1C
22
65
66
6E
68
A8
A8
A8
A8
90
90
ENDCHAR
STARTCHAR Ograve
ENCODING 210
SWIDTH 567 0
DWIDTH 7 0
BBX 6 13 0 -2
BITMAP
08
04
18
34
64
44
44
84
84
84
88
88
70
ENDCHAR
STARTCHAR Oacute
ENCODING 211
SWIDTH 567 0
DWIDTH 7 0
BBX 6 13 0 -2
BITMAP
0C
00
18
34
64
44
44
84
84
84
88
88
70
ENDCHAR
STARTCHAR Ocircumflex
ENCODING 212
SWIDTH 567 0
DWIDTH 7 0
BBX 6 13 0 -2
BITMAP
1C
00
18
34
64
44
44
84
84
84
88
88
70
ENDCHAR
STARTCHAR Otilde
ENCODING 213
SWIDTH 567 0
DWIDTH 7 0
BBX 6 13 0 -2
BITMAP
1C
00
18
34
64
44
44
84
84
84
88
88
70
ENDCHAR
STARTCHAR Odieresis
ENCODING 214
SWIDTH 567 0
DWIDTH 7 0
BBX 6 13 0 -2
BITMAP
14
00
18
34
64
44
44
84
84
84
88
88
70
ENDCHAR
STARTCHAR multiply
ENCODING 215
SWIDTH 281 0
DWIDTH 3 0
BBX 4 4 0 2
BITMAP
D0
60
40
A0
ENDCHAR
STARTCHAR Oslash
ENCODING 216
SWIDTH 597 0
DWIDTH 7 0
BBX 7 12 0 -3
BITMAP
1E
34
24
4C
5C
54
A4
A4
C8
C8
F0
80
ENDCHAR
STARTCHAR Ugrave
ENCODING 217
SWIDTH 574 0
DWIDTH 7 0
BBX 7 13 0 -2
BITMAP
08
04
12
22
66
44
44
44
CC
88
88
98
E8
ENDCHAR
STARTCHAR Uacute
ENCODING 218
SWIDTH 574 0
DWIDTH 7 0
BBX 7 13 0 -2
BITMAP
04
08
12
22
66
44
44
44
CC
88
88
98
E8
ENDCHAR
STARTCHAR Ucircumflex
ENCODING 219
SWIDTH 574 0
DWIDTH 7 0
BBX 7 13 0 -2
BITMAP
0C
12
12
22
66
44
44
44
CC
88
88
98
E8
ENDCHAR
STARTCHAR Udieresis
ENCODING 220
SWIDTH 574 0
DWIDTH 7 0
BBX 7 13 0 -2
BITMAP
1E
00
12
22
66
44
44
44
CC
88
88
98
E8
ENDCHAR
STARTCHAR Yacute
ENCODING 221
SWIDTH 532 0
DWIDTH 6 0
BBX 7 13 0 -2
BITMAP
0C
00
22
66
44
44
44
C8
88
78
08
90
E0
ENDCHAR
STARTCHAR Thorn
ENCODING 222
SWIDTH 569 0
DWIDTH 7 0
BBX 6 11 0 -2
BITMAP
20
20
38
C4
44
44
44
88
F0
80
80
ENDCHAR
STARTCHAR germandbls
ENCODING 223
SWIDTH 495 0
DWIDTH 6 0
BBX 6 14 -1 -6
BITMAP
1C
14
2C
28
28
44
C4
7C
A0
90
90
A0
C0
80
ENDCHAR
STARTCHAR agrave
ENCODING 224
SWIDTH 435 0
DWIDTH 5 0
BBX 6 7 0 0
BITMAP
20
10
20
50
94
A4
D8
ENDCHAR
STARTCHAR aacute
ENCODING 225
SWIDTH 435 0
DWIDTH 5 0
BBX 6 7 0 0
BITMAP
30
00
20
50
94
A4
D8
ENDCHAR
STARTCHAR acircumflex
ENCODING 226
SWIDTH 435 0
DWIDTH 5 0
BBX 6 7 0 0
BITMAP
70
00
20
50
94
A4
D8
ENDCHAR
STARTCHAR atilde
ENCODING 227
SWIDTH 435 0
DWIDTH 5 0
BBX 6 7 0 0
BITMAP
78
00
20
50
94
A4
D8
ENDCHAR
STARTCHAR adieresis
ENCODING 228
SWIDTH 435 0
DWIDTH 5 0
BBX 6 7 0 0
BITMAP
78
00
20
50
94
A4
D8
ENDCHAR
STARTCHAR aring
ENCODING 229
SWIDTH 435 0
DWIDTH 5 0
BBX 6 7 0 0
BITMAP
30
00
20
50
94
A4
D8
ENDCHAR
STARTCHAR ae
ENCODING 230
SWIDTH 594 0
DWIDTH 7 0
BBX 8 5 0 0
BITMAP
2C
54
99
B2
DC
ENDCHAR
STARTCHAR ccedilla
ENCODING 231
SWIDTH 363 0
DWIDTH 4 0
BBX 5 8 0 -3
BITMAP
60
A0
88
88
B0
40
20
40
ENDCHAR
STARTCHAR egrave
ENCODING 232
SWIDTH 372 0
DWIDTH 4 0
BBX 5 7 0 0
BITMAP
60
10
20
60
C8
88
F0
ENDCHAR
STARTCHAR eacute
ENCODING 233
SWIDTH 372 0
DWIDTH 4 0
BBX 5 7 0 0
BITMAP
30
00
20
60
C8
88
F0
ENDCHAR
STARTCHAR ecircumflex
ENCODING 234
SWIDTH 372 0
DWIDTH 4 0
BBX 5 7 0 0
BITMAP
70
00
20
60
C8
88
F0
ENDCHAR
STARTCHAR edieresis
ENCODING 235
SWIDTH 372 0
DWIDTH 4 0
BBX 5 7 0 0
BITMAP
50
00
20
60
C8
88
F0
ENDCHAR
STARTCHAR igrave
ENCODING 236
SWIDTH 274 0
DWIDTH 3 0
BBX 4 7 0 0
BITMAP
C0
00
40
40
90
90
E0
ENDCHAR
STARTCHAR iacute
ENCODING 237
SWIDTH 274 0
DWIDTH 3 0
BBX 4 7 0 0
BITMAP
20
40
40
40
90
90
E0
ENDCHAR
STARTCHAR icircumflex
ENCODING 238
SWIDTH 274 0
DWIDTH 3 0
BBX 4 7 0 0
BITMAP
E0
00
40
40
90
90
E0
ENDCHAR
STARTCHAR idieresis
ENCODING 239
SWIDTH 274 0
DWIDTH 3 0
BBX 4 7 0 0
BITMAP
E0
00
40
40
90
90
E0
ENDCHAR
STARTCHAR eth
ENCODING 240
SWIDTH 393 0
DWIDTH 5 0
BBX 6 8 0 0
BITMAP
20
18
70
70
94
D8
A0
E0
ENDCHAR
STARTCHAR ntilde
ENCODING 241
SWIDTH 461 0
DWIDTH 6 0
BBX 6 7 0 0
BITMAP
78
00
50
70
94
94
98
ENDCHAR
STARTCHAR ograve
ENCODING 242
SWIDTH 393 0
DWIDTH 5 0
BBX 6 7 0 0
BITMAP
60
10
60
94
D8
A0
E0
ENDCHAR
STARTCHAR oacute
ENCODING 243
SWIDTH 393 0
DWIDTH 5 0
BBX 6 7 0 0
BITMAP
30
00
60
94
D8
A0
E0
ENDCHAR
STARTCHAR ocircumflex
ENCODING 244
SWIDTH 393 0
DWIDTH 5 0
BBX 6 7 0 0
BITMAP
70
00
60
94
D8
A0
E0
ENDCHAR
STARTCHAR otilde
ENCODING 245
SWIDTH 393 0
DWIDTH 5 0
BBX 6 7 0 0
BITMAP
70
00
60
94
D8
A0
E0
ENDCHAR
STARTCHAR odieresis
ENCODING 246
SWIDTH 393 0
DWIDTH 5 0
BBX 6 7 0 0
BITMAP
50
00
60
94
D8
A0
E0
ENDCHAR
STARTCHAR divide
ENCODING 247
SWIDTH 350 0
DWIDTH 4 0
BBX 4 4 0 2
BITMAP
20
F0
00
40
ENDCHAR
STARTCHAR oslash
ENCODING 248
SWIDTH 406 0
DWIDTH 5 0
BBX 7 6 -1 -1
BITMAP
38
2A
6C
58
70
C0
ENDCHAR
STARTCHAR ugrave
ENCODING 249
SWIDTH 468 0
DWIDTH 6 0
BBX 7 7 0 0
BITMAP
20
10
50
90
92
94
F8
ENDCHAR
STARTCHAR uacute
ENCODING 250
SWIDTH 468 0
DWIDTH 6 0
BBX 7 7 0 0
BITMAP
30
00
50
90
92
94
F8
ENDCHAR
STARTCHAR ucircumflex
ENCODING 251
SWIDTH 468 0
DWIDTH 6 0
BBX 7 7 0 0
BITMAP
70
08
50
90
92
94
F8
ENDCHAR
STARTCHAR udieresis
ENCODING 252
SWIDTH 468 0
DWIDTH 6 0
BBX 7 7 0 0
BITMAP
78
00
50
90
92
94
F8
ENDCHAR
STARTCHAR yacute
ENCODING 253
SWIDTH 406 0
DWIDTH 5 0
BBX 4 12 0 -5
BITMAP
10
20
50
90
90
B0
E0
20
20
20
60
40
ENDCHAR
STARTCHAR thorn
ENCODING 254
SWIDTH 451 0
DWIDTH 5 0
BBX 7 13 -1 -5
BITMAP
10
30
20
28
38
4A
4A
7C
40
80
80
80
80
ENDCHAR
STARTCHAR ydieresis
ENCODING 255
SWIDTH 406 0
DWIDTH 5 0
BBX 4 12 0 -5
BITMAP
50
00
50
90
90
B0
E0
20
20
20
60
40
ENDCHAR
STARTCHAR dotlessi
ENCODING 305
SWIDTH 274 0
DWIDTH 3 0
BBX 4 5 0 0
BITMAP
40
40
90
90
E0
ENDCHAR
STARTCHAR Lslash
ENCODING 321
SWIDTH 492 0
DWIDTH 6 0
BBX 7 11 -1 -2
BITMAP
06
06
0A
0C
78
08
3C
50
10
E0
DC
ENDCHAR
STARTCHAR lslash
ENCODING 322
SWIDTH 218 0
DWIDTH 3 0
BBX 4 8 -1 0
BITMAP
30
20
20
70
A0
40
40
40
ENDCHAR
STARTCHAR OE
ENCODING 338
SWIDTH 918 0
DWIDTH 11 0
BBX 11 11 0 -2
BITMAP
18E0
3520
6620
4660
4600
8580
8600
8400
8C40
8C40
7780
ENDCHAR
STARTCHAR oe
ENCODING 339
SWIDTH 583 0
DWIDTH 7 0
BBX 8 5 0 0
BITMAP
6C
94
D9
B2
FC
ENDCHAR
STARTCHAR Scaron
ENCODING 352
SWIDTH 474 0
DWIDTH 6 0
BBX 8 13 -1 -2
BITMAP
07
00
1C
32
22
24
30
18
08
08
48
C8
70
ENDCHAR
STARTCHAR scaron
ENCODING 353
SWIDTH 351 0
DWIDTH 4 0
BBX 4 7 0 0
BITMAP
70
00
60
40
A0
20
E0
ENDCHAR
STARTCHAR Ydieresis
ENCODING 376
SWIDTH 532 0
DWIDTH 6 0
BBX 7 13 0 -2
BITMAP
14
00
22
66
44
44
44
C8
88
78
08
90
E0
ENDCHAR
STARTCHAR Zcaron
ENCODING 381
SWIDTH 455 0
DWIDTH 5 0
BBX 7 13 -1 -2
BITMAP
0E
00
3E
22
06
04
08
10
30
20
40
84
F8
ENDCHAR
STARTCHAR zcaron
ENCODING 382
SWIDTH 349 0
DWIDTH 4 0
BBX 7 12 -2 -5
BITMAP
1E
00
38
28
08
12
2C
18
68
50
90
60
ENDCHAR
STARTCHAR circumflex
ENCODING 710
SWIDTH 567 0
DWIDTH 7 0
BBX 4 1 2 7
BITMAP
F0
ENDCHAR
STARTCHAR caron
ENCODING 711
SWIDTH 567 0
DWIDTH 7 0
BBX 4 1 2 7
BITMAP
F0
ENDCHAR
STARTCHAR breve
ENCODING 728
SWIDTH 567 0
DWIDTH 7 0
BBX 3 2 3 6
BITMAP
A0
C0
ENDCHAR
STARTCHAR dotaccent
ENCODING 729
SWIDTH 567 0
DWIDTH 7 0
BBX 2 1 3 7
BITMAP
C0
ENDCHAR
STARTCHAR ring
ENCODING 730
SWIDTH 567 0
DWIDTH 7 0
BBX 2 1 3 7
BITMAP
C0
ENDCHAR
STARTCHAR ogonek
ENCODING 731
SWIDTH 567 0
DWIDTH 7 0
BBX 3 2 3 -1
BITMAP
80
E0
ENDCHAR
STARTCHAR tilde
ENCODING 732
SWIDTH 567 0
DWIDTH 7 0
BBX 4 1 2 7
BITMAP
F0
ENDCHAR
STARTCHAR hungarumlaut
ENCODING 733
SWIDTH 567 0
DWIDTH 7 0
BBX 4 1 2 7
BITMAP
F0
ENDCHAR
STARTCHAR endash
ENCODING 8211
SWIDTH 353 0
DWIDTH 4 0
BBX 4 1 0 3
BITMAP
F0
ENDCHAR
STARTCHAR emdash
ENCODING 8212
SWIDTH 508 0
DWIDTH 6 0
BBX 6 1 0 3
BITMAP
FC
ENDCHAR
STARTCHAR quoteleft
ENCODING 8216
SWIDTH 155 0
DWIDTH 2 0
BBX 1 2 1 6
BITMAP
80
80
ENDCHAR
STARTCHAR quoteright
ENCODING 8217
SWIDTH 154 0
DWIDTH 2 0
BBX 1 3 1 5
BITMAP
80
80
80
ENDCHAR
STARTCHAR quotesinglbase
ENCODING 8218
SWIDTH 188 0
DWIDTH 2 0
BBX 1 2 0 -1
BITMAP
80
80
ENDCHAR
STARTCHAR quotedblleft
ENCODING 8220
SWIDTH 289 0
DWIDTH 3 0
BBX 3 2 1 6
BITMAP
E0
E0
ENDCHAR
STARTCHAR quotedblright
ENCODING 8221
SWIDTH 288 0
DWIDTH 3 0
BBX 3 2 1 6
BITMAP
E0
E0
ENDCHAR
STARTCHAR quotedblbase
ENCODING 8222
SWIDTH 323 0
DWIDTH 4 0
BBX 3 2 0 -1
BITMAP
E0
C0
ENDCHAR
STARTCHAR bullet
ENCODING 8226
SWIDTH 180 0
DWIDTH 2 0
BBX 2 3 0 2
BITMAP
C0
C0
80
ENDCHAR
STARTCHAR ellipsis
ENCODING 8230
SWIDTH 614 0
DWIDTH 7 0
BBX 6 1 0 0
BITMAP
BC
ENDCHAR
STARTCHAR perthousand
ENCODING 8240
SWIDTH 851 0
DWIDTH 10 0
BBX 10 9 0 0
BITMAP
2200
5400
9800
A800
5000
2D80
3340
5540
9D80
ENDCHAR
STARTCHAR guilsinglleft
ENCODING 8249
SWIDTH 202 0
DWIDTH 2 0
BBX 2 5 0 0
BITMAP
40
40
80
80
80
ENDCHAR
STARTCHAR guilsinglright
ENCODING 8250
SWIDTH 202 0
DWIDTH 2 0
BBX 3 5 -1 0
BITMAP
40
40
20
40
80
ENDCHAR
STARTCHAR fraction
ENCODING 8260
SWIDTH 600 0
DWIDTH 7 0
BBX 7 9 0 0
BITMAP
02
04
04
08
10
10
20
40
C0
ENDCHAR
STARTCHAR Euro
ENCODING 8364
SWIDTH 334 0
DWIDTH 4 0
BBX 6 7 -1 1
BITMAP
18
24
20
58
F0
48
70
ENDCHAR
STARTCHAR minus
ENCODING 8722
SWIDTH 353 0
DWIDTH 4 0
BBX 4 1 0 3
BITMAP
F0
ENDCHAR
STARTCHAR fi
ENCODING 64257
SWIDTH 549 0
DWIDTH 7 0
BBX 9 14 -1 -6
BITMAP
1200
1200
2000
2400
2C00
7480
4900
6600
5000
9000
9000
A000
E000
8000
ENDCHAR
STARTCHAR fl
ENCODING 64258
SWIDTH 516 0
DWIDTH 6 0
BBX 7 14 -1 -6
BITMAP
12
12
22
24
2C
74
44
68
50
90
90
A0
E0
80
ENDCHAR
STARTCHAR .notdef
ENCODING -1
SWIDTH 280 0
DWIDTH 3 0
BBX 1 1 0 0
BITMAP
00
ENDCHAR
ENDFONT
